<svg xmlns="http://www.w3.org/2000/svg" viewBox="0 0 512 512">
  <defs>
    <linearGradient id="grad1" x1="0%" y1="0%" x2="100%" y2="0%">
      <stop offset="0%" style="stop-color:#1e3a8a;stop-opacity:1" />
      <stop offset="100%" style="stop-color:#3b82f6;stop-opacity:1" />
    </linearGradient>
  </defs>
  <!-- Shield Background -->
  <path d="M256 48C150 48 64 134 64 240c0 88 57 163 136 192 4 .2 8 .2 12 0 79-29 136-104 136-192 0-106-86-192-192-192z" fill="none" stroke="url(#grad1)" stroke-width="24" stroke-linecap="round" stroke-linejoin="round"/>
  
  <!-- Sleek Car Silhouette -->
  <path d="M130 260l20-40h160l30 40h40v50h-20v20h-30v-20H182v20h-30v-20h-22v-50h40zm30-25h140l-15-25h-110l-15 25z" fill="url(#grad1)" />
  
  <!-- Checkmark/Speed Line accent -->
  <path d="M330 350l40-40M350 350l40-40" stroke="#3b82f6" stroke-width="12" stroke-linecap="round" />
</svg>
